Output #0, flv, to '02.muxing.flv':
    Stream #0:0: Video: flv1, yuv420p, 640x480, q=2-31, 400 kb/s, 25 tbn
    Stream #0:1: Audio: mp3, 44100 Hz, stereo, s32p, 64 kb/s
合成视频
pts:0 pts_time:0 dts:0 dts_time:0 duration:0 duration_time:0 stream_index:0
pts:40 pts_time:0.04 dts:40 dts_time:0.04 duration:0 duration_time:0 stream_index:0
pts:-25 pts_time:-0.025 dts:-25 dts_time:-0.025 duration:26 duration_time:0.026 stream_index:1
pts:1 pts_time:0.001 dts:1 dts_time:0.001 duration:26 duration_time:0.026 stream_index:1
pts:80 pts_time:0.08 dts:80 dts_time:0.08 duration:0 duration_time:0 stream_index:0
pts:27 pts_time:0.027 dts:27 dts_time:0.027 duration:26 duration_time:0.026 stream_index:1
pts:120 pts_time:0.12 dts:120 dts_time:0.12 duration:0 duration_time:0 stream_index:0
pts:53 pts_time:0.053 dts:53 dts_time:0.053 duration:26 duration_time:0.026 stream_index:1
pts:79 pts_time:0.079 dts:79 dts_time:0.079 duration:26 duration_time:0.026 stream_index:1
pts:160 pts_time:0.16 dts:160 dts_time:0.16 duration:0 duration_time:0 stream_index:0
pts:106 pts_time:0.106 dts:106 dts_time:0.106 duration:26 duration_time:0.026 stream_index:1
pts:200 pts_time:0.2 dts:200 dts_time:0.2 duration:0 duration_time:0 stream_index:0
pts:132 pts_time:0.132 dts:132 dts_time:0.132 duration:26 duration_time:0.026 stream_index:1
pts:158 pts_time:0.158 dts:158 dts_time:0.158 duration:26 duration_time:0.026 stream_index:1
pts:240 pts_time:0.24 dts:240 dts_time:0.24 duration:0 duration_time:0 stream_index:0
pts:184 pts_time:0.184 dts:184 dts_time:0.184 duration:26 duration_time:0.026 stream_index:1
pts:280 pts_time:0.28 dts:280 dts_time:0.28 duration:0 duration_time:0 stream_index:0
pts:210 pts_time:0.21 dts:210 dts_time:0.21 duration:26 duration_time:0.026 stream_index:1
pts:320 pts_time:0.32 dts:320 dts_time:0.32 duration:0 duration_time:0 stream_index:0
pts:236 pts_time:0.236 dts:236 dts_time:0.236 duration:26 duration_time:0.026 stream_index:1
pts:360 pts_time:0.36 dts:360 dts_time:0.36 duration:0 duration_time:0 stream_index:0
pts:262 pts_time:0.262 dts:262 dts_time:0.262 duration:26 duration_time:0.026 stream_index:1
pts:288 pts_time:0.288 dts:288 dts_time:0.288 duration:26 duration_time:0.026 stream_index:1
pts:400 pts_time:0.4 dts:400 dts_time:0.4 duration:0 duration_time:0 stream_index:0
pts:315 pts_time:0.315 dts:315 dts_time:0.315 duration:26 duration_time:0.026 stream_index:1
pts:440 pts_time:0.44 dts:440 dts_time:0.44 duration:0 duration_time:0 stream_index:0
pts:341 pts_time:0.341 dts:341 dts_time:0.341 duration:26 duration_time:0.026 stream_index:1
pts:367 pts_time:0.367 dts:367 dts_time:0.367 duration:26 duration_time:0.026 stream_index:1
pts:480 pts_time:0.48 dts:480 dts_time:0.48 duration:0 duration_time:0 stream_index:0
pts:393 pts_time:0.393 dts:393 dts_time:0.393 duration:26 duration_time:0.026 stream_index:1
pts:520 pts_time:0.52 dts:520 dts_time:0.52 duration:0 duration_time:0 stream_index:0
pts:419 pts_time:0.419 dts:419 dts_time:0.419 duration:26 duration_time:0.026 stream_index:1
pts:445 pts_time:0.445 dts:445 dts_time:0.445 duration:26 duration_time:0.026 stream_index:1
pts:560 pts_time:0.56 dts:560 dts_time:0.56 duration:0 duration_time:0 stream_index:0
pts:600 pts_time:0.6 dts:600 dts_time:0.6 duration:0 duration_time:0 stream_index:0
pts:471 pts_time:0.471 dts:471 dts_time:0.471 duration:26 duration_time:0.026 stream_index:1
pts:497 pts_time:0.497 dts:497 dts_time:0.497 duration:26 duration_time:0.026 stream_index:1
pts:640 pts_time:0.64 dts:640 dts_time:0.64 duration:0 duration_time:0 stream_index:0
pts:524 pts_time:0.524 dts:524 dts_time:0.524 duration:26 duration_time:0.026 stream_index:1
pts:550 pts_time:0.55 dts:550 dts_time:0.55 duration:26 duration_time:0.026 stream_index:1
pts:680 pts_time:0.68 dts:680 dts_time:0.68 duration:0 duration_time:0 stream_index:0
pts:576 pts_time:0.576 dts:576 dts_time:0.576 duration:26 duration_time:0.026 stream_index:1
pts:720 pts_time:0.72 dts:720 dts_time:0.72 duration:0 duration_time:0 stream_index:0
pts:602 pts_time:0.602 dts:602 dts_time:0.602 duration:26 duration_time:0.026 stream_index:1
pts:628 pts_time:0.628 dts:628 dts_time:0.628 duration:26 duration_time:0.026 stream_index:1
pts:760 pts_time:0.76 dts:760 dts_time:0.76 duration:0 duration_time:0 stream_index:0
pts:654 pts_time:0.654 dts:654 dts_time:0.654 duration:26 duration_time:0.026 stream_index:1
pts:800 pts_time:0.8 dts:800 dts_time:0.8 duration:0 duration_time:0 stream_index:0
pts:680 pts_time:0.68 dts:680 dts_time:0.68 duration:26 duration_time:0.026 stream_index:1
pts:706 pts_time:0.706 dts:706 dts_time:0.706 duration:26 duration_time:0.026 stream_index:1
pts:840 pts_time:0.84 dts:840 dts_time:0.84 duration:0 duration_time:0 stream_index:0
pts:732 pts_time:0.732 dts:732 dts_time:0.732 duration:26 duration_time:0.026 stream_index:1
pts:880 pts_time:0.88 dts:880 dts_time:0.88 duration:0 duration_time:0 stream_index:0
pts:759 pts_time:0.759 dts:759 dts_time:0.759 duration:26 duration_time:0.026 stream_index:1
pts:785 pts_time:0.785 dts:785 dts_time:0.785 duration:26 duration_time:0.026 stream_index:1
pts:920 pts_time:0.92 dts:920 dts_time:0.92 duration:0 duration_time:0 stream_index:0
pts:811 pts_time:0.811 dts:811 dts_time:0.811 duration:26 duration_time:0.026 stream_index:1
pts:960 pts_time:0.96 dts:960 dts_time:0.96 duration:0 duration_time:0 stream_index:0
pts:837 pts_time:0.837 dts:837 dts_time:0.837 duration:26 duration_time:0.026 stream_index:1
pts:863 pts_time:0.863 dts:863 dts_time:0.863 duration:26 duration_time:0.026 stream_index:1
pts:1000 pts_time:1 dts:1000 dts_time:1 duration:0 duration_time:0 stream_index:0
pts:889 pts_time:0.889 dts:889 dts_time:0.889 duration:26 duration_time:0.026 stream_index:1
pts:1040 pts_time:1.04 dts:1040 dts_time:1.04 duration:0 duration_time:0 stream_index:0
pts:915 pts_time:0.915 dts:915 dts_time:0.915 duration:26 duration_time:0.026 stream_index:1
pts:941 pts_time:0.941 dts:941 dts_time:0.941 duration:26 duration_time:0.026 stream_index:1
pts:1080 pts_time:1.08 dts:1080 dts_time:1.08 duration:0 duration_time:0 stream_index:0
pts:968 pts_time:0.968 dts:968 dts_time:0.968 duration:26 duration_time:0.026 stream_index:1
pts:1120 pts_time:1.12 dts:1120 dts_time:1.12 duration:0 duration_time:0 stream_index:0
pts:994 pts_time:0.994 dts:994 dts_time:0.994 duration:26 duration_time:0.026 stream_index:1
pts:1020 pts_time:1.02 dts:1020 dts_time:1.02 duration:26 duration_time:0.026 stream_index:1
pts:1160 pts_time:1.16 dts:1160 dts_time:1.16 duration:0 duration_time:0 stream_index:0
pts:1046 pts_time:1.046 dts:1046 dts_time:1.046 duration:26 duration_time:0.026 stream_index:1
pts:1200 pts_time:1.2 dts:1200 dts_time:1.2 duration:0 duration_time:0 stream_index:0
pts:1072 pts_time:1.072 dts:1072 dts_time:1.072 duration:26 duration_time:0.026 stream_index:1
pts:1098 pts_time:1.098 dts:1098 dts_time:1.098 duration:26 duration_time:0.026 stream_index:1
pts:1240 pts_time:1.24 dts:1240 dts_time:1.24 duration:0 duration_time:0 stream_index:0
pts:1124 pts_time:1.124 dts:1124 dts_time:1.124 duration:26 duration_time:0.026 stream_index:1
pts:1280 pts_time:1.28 dts:1280 dts_time:1.28 duration:0 duration_time:0 stream_index:0
pts:1150 pts_time:1.15 dts:1150 dts_time:1.15 duration:26 duration_time:0.026 stream_index:1
pts:1177 pts_time:1.177 dts:1177 dts_time:1.177 duration:26 duration_time:0.026 stream_index:1
pts:1320 pts_time:1.32 dts:1320 dts_time:1.32 duration:0 duration_time:0 stream_index:0
pts:1203 pts_time:1.203 dts:1203 dts_time:1.203 duration:26 duration_time:0.026 stream_index:1
pts:1229 pts_time:1.229 dts:1229 dts_time:1.229 duration:26 duration_time:0.026 stream_index:1
pts:1360 pts_time:1.36 dts:1360 dts_time:1.36 duration:0 duration_time:0 stream_index:0
pts:1255 pts_time:1.255 dts:1255 dts_time:1.255 duration:26 duration_time:0.026 stream_index:1
pts:1400 pts_time:1.4 dts:1400 dts_time:1.4 duration:0 duration_time:0 stream_index:0
pts:1281 pts_time:1.281 dts:1281 dts_time:1.281 duration:26 duration_time:0.026 stream_index:1
pts:1307 pts_time:1.307 dts:1307 dts_time:1.307 duration:26 duration_time:0.026 stream_index:1
pts:1440 pts_time:1.44 dts:1440 dts_time:1.44 duration:0 duration_time:0 stream_index:0
pts:1333 pts_time:1.333 dts:1333 dts_time:1.333 duration:26 duration_time:0.026 stream_index:1
pts:1480 pts_time:1.48 dts:1480 dts_time:1.48 duration:0 duration_time:0 stream_index:0
pts:1359 pts_time:1.359 dts:1359 dts_time:1.359 duration:26 duration_time:0.026 stream_index:1
pts:1386 pts_time:1.386 dts:1386 dts_time:1.386 duration:26 duration_time:0.026 stream_index:1
pts:1520 pts_time:1.52 dts:1520 dts_time:1.52 duration:0 duration_time:0 stream_index:0
pts:1412 pts_time:1.412 dts:1412 dts_time:1.412 duration:26 duration_time:0.026 stream_index:1
pts:1560 pts_time:1.56 dts:1560 dts_time:1.56 duration:0 duration_time:0 stream_index:0
pts:1438 pts_time:1.438 dts:1438 dts_time:1.438 duration:26 duration_time:0.026 stream_index:1
pts:1464 pts_time:1.464 dts:1464 dts_time:1.464 duration:26 duration_time:0.026 stream_index:1
pts:1600 pts_time:1.6 dts:1600 dts_time:1.6 duration:0 duration_time:0 stream_index:0
pts:1490 pts_time:1.49 dts:1490 dts_time:1.49 duration:26 duration_time:0.026 stream_index:1
pts:1640 pts_time:1.64 dts:1640 dts_time:1.64 duration:0 duration_time:0 stream_index:0
pts:1516 pts_time:1.516 dts:1516 dts_time:1.516 duration:26 duration_time:0.026 stream_index:1
pts:1542 pts_time:1.542 dts:1542 dts_time:1.542 duration:26 duration_time:0.026 stream_index:1
pts:1680 pts_time:1.68 dts:1680 dts_time:1.68 duration:0 duration_time:0 stream_index:0
pts:1568 pts_time:1.568 dts:1568 dts_time:1.568 duration:26 duration_time:0.026 stream_index:1
pts:1720 pts_time:1.72 dts:1720 dts_time:1.72 duration:0 duration_time:0 stream_index:0
pts:1595 pts_time:1.595 dts:1595 dts_time:1.595 duration:26 duration_time:0.026 stream_index:1
pts:1621 pts_time:1.621 dts:1621 dts_time:1.621 duration:26 duration_time:0.026 stream_index:1
pts:1760 pts_time:1.76 dts:1760 dts_time:1.76 duration:0 duration_time:0 stream_index:0
pts:1647 pts_time:1.647 dts:1647 dts_time:1.647 duration:26 duration_time:0.026 stream_index:1
pts:1800 pts_time:1.8 dts:1800 dts_time:1.8 duration:0 duration_time:0 stream_index:0
pts:1673 pts_time:1.673 dts:1673 dts_time:1.673 duration:26 duration_time:0.026 stream_index:1
pts:1699 pts_time:1.699 dts:1699 dts_time:1.699 duration:26 duration_time:0.026 stream_index:1
pts:1840 pts_time:1.84 dts:1840 dts_time:1.84 duration:0 duration_time:0 stream_index:0
pts:1725 pts_time:1.725 dts:1725 dts_time:1.725 duration:26 duration_time:0.026 stream_index:1
pts:1880 pts_time:1.88 dts:1880 dts_time:1.88 duration:0 duration_time:0 stream_index:0
pts:1751 pts_time:1.751 dts:1751 dts_time:1.751 duration:26 duration_time:0.026 stream_index:1
pts:1777 pts_time:1.777 dts:1777 dts_time:1.777 duration:26 duration_time:0.026 stream_index:1
pts:1920 pts_time:1.92 dts:1920 dts_time:1.92 duration:0 duration_time:0 stream_index:0
pts:1804 pts_time:1.804 dts:1804 dts_time:1.804 duration:26 duration_time:0.026 stream_index:1
pts:1830 pts_time:1.83 dts:1830 dts_time:1.83 duration:26 duration_time:0.026 stream_index:1
pts:1960 pts_time:1.96 dts:1960 dts_time:1.96 duration:0 duration_time:0 stream_index:0
pts:1856 pts_time:1.856 dts:1856 dts_time:1.856 duration:26 duration_time:0.026 stream_index:1
pts:2000 pts_time:2 dts:2000 dts_time:2 duration:0 duration_time:0 stream_index:0
pts:1882 pts_time:1.882 dts:1882 dts_time:1.882 duration:26 duration_time:0.026 stream_index:1
pts:1908 pts_time:1.908 dts:1908 dts_time:1.908 duration:26 duration_time:0.026 stream_index:1
pts:2040 pts_time:2.04 dts:2040 dts_time:2.04 duration:0 duration_time:0 stream_index:0
pts:1934 pts_time:1.934 dts:1934 dts_time:1.934 duration:26 duration_time:0.026 stream_index:1
pts:2080 pts_time:2.08 dts:2080 dts_time:2.08 duration:0 duration_time:0 stream_index:0
pts:1960 pts_time:1.96 dts:1960 dts_time:1.96 duration:26 duration_time:0.026 stream_index:1
pts:1986 pts_time:1.986 dts:1986 dts_time:1.986 duration:26 duration_time:0.026 stream_index:1
pts:2120 pts_time:2.12 dts:2120 dts_time:2.12 duration:0 duration_time:0 stream_index:0
pts:2012 pts_time:2.012 dts:2012 dts_time:2.012 duration:26 duration_time:0.026 stream_index:1
pts:2160 pts_time:2.16 dts:2160 dts_time:2.16 duration:0 duration_time:0 stream_index:0
pts:2039 pts_time:2.039 dts:2039 dts_time:2.039 duration:26 duration_time:0.026 stream_index:1
pts:2065 pts_time:2.065 dts:2065 dts_time:2.065 duration:26 duration_time:0.026 stream_index:1
pts:2200 pts_time:2.2 dts:2200 dts_time:2.2 duration:0 duration_time:0 stream_index:0
pts:2091 pts_time:2.091 dts:2091 dts_time:2.091 duration:26 duration_time:0.026 stream_index:1
pts:2240 pts_time:2.24 dts:2240 dts_time:2.24 duration:0 duration_time:0 stream_index:0
pts:2117 pts_time:2.117 dts:2117 dts_time:2.117 duration:26 duration_time:0.026 stream_index:1
pts:2143 pts_time:2.143 dts:2143 dts_time:2.143 duration:26 duration_time:0.026 stream_index:1
pts:2280 pts_time:2.28 dts:2280 dts_time:2.28 duration:0 duration_time:0 stream_index:0
pts:2169 pts_time:2.169 dts:2169 dts_time:2.169 duration:26 duration_time:0.026 stream_index:1
pts:2320 pts_time:2.32 dts:2320 dts_time:2.32 duration:0 duration_time:0 stream_index:0
pts:2195 pts_time:2.195 dts:2195 dts_time:2.195 duration:26 duration_time:0.026 stream_index:1
pts:2221 pts_time:2.221 dts:2221 dts_time:2.221 duration:26 duration_time:0.026 stream_index:1
pts:2360 pts_time:2.36 dts:2360 dts_time:2.36 duration:0 duration_time:0 stream_index:0
pts:2248 pts_time:2.248 dts:2248 dts_time:2.248 duration:26 duration_time:0.026 stream_index:1
pts:2400 pts_time:2.4 dts:2400 dts_time:2.4 duration:0 duration_time:0 stream_index:0
pts:2274 pts_time:2.274 dts:2274 dts_time:2.274 duration:26 duration_time:0.026 stream_index:1
pts:2300 pts_time:2.3 dts:2300 dts_time:2.3 duration:26 duration_time:0.026 stream_index:1
pts:2440 pts_time:2.44 dts:2440 dts_time:2.44 duration:0 duration_time:0 stream_index:0
pts:2326 pts_time:2.326 dts:2326 dts_time:2.326 duration:26 duration_time:0.026 stream_index:1
pts:2480 pts_time:2.48 dts:2480 dts_time:2.48 duration:0 duration_time:0 stream_index:0
pts:2352 pts_time:2.352 dts:2352 dts_time:2.352 duration:26 duration_time:0.026 stream_index:1
pts:2378 pts_time:2.378 dts:2378 dts_time:2.378 duration:26 duration_time:0.026 stream_index:1
pts:2520 pts_time:2.52 dts:2520 dts_time:2.52 duration:0 duration_time:0 stream_index:0
pts:2404 pts_time:2.404 dts:2404 dts_time:2.404 duration:26 duration_time:0.026 stream_index:1
pts:2560 pts_time:2.56 dts:2560 dts_time:2.56 duration:0 duration_time:0 stream_index:0
pts:2430 pts_time:2.43 dts:2430 dts_time:2.43 duration:26 duration_time:0.026 stream_index:1
pts:2457 pts_time:2.457 dts:2457 dts_time:2.457 duration:26 duration_time:0.026 stream_index:1
pts:2600 pts_time:2.6 dts:2600 dts_time:2.6 duration:0 duration_time:0 stream_index:0
pts:2483 pts_time:2.483 dts:2483 dts_time:2.483 duration:26 duration_time:0.026 stream_index:1
pts:2509 pts_time:2.509 dts:2509 dts_time:2.509 duration:26 duration_time:0.026 stream_index:1
pts:2640 pts_time:2.64 dts:2640 dts_time:2.64 duration:0 duration_time:0 stream_index:0
pts:2535 pts_time:2.535 dts:2535 dts_time:2.535 duration:26 duration_time:0.026 stream_index:1
pts:2680 pts_time:2.68 dts:2680 dts_time:2.68 duration:0 duration_time:0 stream_index:0
pts:2561 pts_time:2.561 dts:2561 dts_time:2.561 duration:26 duration_time:0.026 stream_index:1
pts:2587 pts_time:2.587 dts:2587 dts_time:2.587 duration:26 duration_time:0.026 stream_index:1
pts:2720 pts_time:2.72 dts:2720 dts_time:2.72 duration:0 duration_time:0 stream_index:0
pts:2613 pts_time:2.613 dts:2613 dts_time:2.613 duration:26 duration_time:0.026 stream_index:1
pts:2760 pts_time:2.76 dts:2760 dts_time:2.76 duration:0 duration_time:0 stream_index:0
pts:2639 pts_time:2.639 dts:2639 dts_time:2.639 duration:26 duration_time:0.026 stream_index:1
pts:2666 pts_time:2.666 dts:2666 dts_time:2.666 duration:26 duration_time:0.026 stream_index:1
pts:2800 pts_time:2.8 dts:2800 dts_time:2.8 duration:0 duration_time:0 stream_index:0
pts:2692 pts_time:2.692 dts:2692 dts_time:2.692 duration:26 duration_time:0.026 stream_index:1
pts:2840 pts_time:2.84 dts:2840 dts_time:2.84 duration:0 duration_time:0 stream_index:0
pts:2718 pts_time:2.718 dts:2718 dts_time:2.718 duration:26 duration_time:0.026 stream_index:1
pts:2744 pts_time:2.744 dts:2744 dts_time:2.744 duration:26 duration_time:0.026 stream_index:1
pts:2880 pts_time:2.88 dts:2880 dts_time:2.88 duration:0 duration_time:0 stream_index:0
pts:2770 pts_time:2.77 dts:2770 dts_time:2.77 duration:26 duration_time:0.026 stream_index:1
pts:2920 pts_time:2.92 dts:2920 dts_time:2.92 duration:0 duration_time:0 stream_index:0
pts:2796 pts_time:2.796 dts:2796 dts_time:2.796 duration:26 duration_time:0.026 stream_index:1
pts:2822 pts_time:2.822 dts:2822 dts_time:2.822 duration:26 duration_time:0.026 stream_index:1
pts:2960 pts_time:2.96 dts:2960 dts_time:2.96 duration:0 duration_time:0 stream_index:0
pts:2848 pts_time:2.848 dts:2848 dts_time:2.848 duration:26 duration_time:0.026 stream_index:1
pts:3000 pts_time:3 dts:3000 dts_time:3 duration:0 duration_time:0 stream_index:0
pts:2875 pts_time:2.875 dts:2875 dts_time:2.875 duration:26 duration_time:0.026 stream_index:1
pts:2901 pts_time:2.901 dts:2901 dts_time:2.901 duration:26 duration_time:0.026 stream_index:1
pts:3040 pts_time:3.04 dts:3040 dts_time:3.04 duration:0 duration_time:0 stream_index:0
pts:2927 pts_time:2.927 dts:2927 dts_time:2.927 duration:26 duration_time:0.026 stream_index:1
pts:3080 pts_time:3.08 dts:3080 dts_time:3.08 duration:0 duration_time:0 stream_index:0
pts:2953 pts_time:2.953 dts:2953 dts_time:2.953 duration:26 duration_time:0.026 stream_index:1
pts:2979 pts_time:2.979 dts:2979 dts_time:2.979 duration:26 duration_time:0.026 stream_index:1
pts:3120 pts_time:3.12 dts:3120 dts_time:3.12 duration:0 duration_time:0 stream_index:0
pts:3005 pts_time:3.005 dts:3005 dts_time:3.005 duration:26 duration_time:0.026 stream_index:1
pts:3160 pts_time:3.16 dts:3160 dts_time:3.16 duration:0 duration_time:0 stream_index:0
pts:3031 pts_time:3.031 dts:3031 dts_time:3.031 duration:26 duration_time:0.026 stream_index:1
pts:3057 pts_time:3.057 dts:3057 dts_time:3.057 duration:26 duration_time:0.026 stream_index:1
pts:3200 pts_time:3.2 dts:3200 dts_time:3.2 duration:0 duration_time:0 stream_index:0
pts:3084 pts_time:3.084 dts:3084 dts_time:3.084 duration:26 duration_time:0.026 stream_index:1
pts:3110 pts_time:3.11 dts:3110 dts_time:3.11 duration:26 duration_time:0.026 stream_index:1
pts:3240 pts_time:3.24 dts:3240 dts_time:3.24 duration:0 duration_time:0 stream_index:0
pts:3136 pts_time:3.136 dts:3136 dts_time:3.136 duration:26 duration_time:0.026 stream_index:1
pts:3280 pts_time:3.28 dts:3280 dts_time:3.28 duration:0 duration_time:0 stream_index:0
pts:3162 pts_time:3.162 dts:3162 dts_time:3.162 duration:26 duration_time:0.026 stream_index:1
pts:3188 pts_time:3.188 dts:3188 dts_time:3.188 duration:26 duration_time:0.026 stream_index:1
pts:3320 pts_time:3.32 dts:3320 dts_time:3.32 duration:0 duration_time:0 stream_index:0
pts:3214 pts_time:3.214 dts:3214 dts_time:3.214 duration:26 duration_time:0.026 stream_index:1
pts:3360 pts_time:3.36 dts:3360 dts_time:3.36 duration:0 duration_time:0 stream_index:0
pts:3240 pts_time:3.24 dts:3240 dts_time:3.24 duration:26 duration_time:0.026 stream_index:1
pts:3266 pts_time:3.266 dts:3266 dts_time:3.266 duration:26 duration_time:0.026 stream_index:1
pts:3400 pts_time:3.4 dts:3400 dts_time:3.4 duration:0 duration_time:0 stream_index:0
pts:3292 pts_time:3.292 dts:3292 dts_time:3.292 duration:26 duration_time:0.026 stream_index:1
pts:3440 pts_time:3.44 dts:3440 dts_time:3.44 duration:0 duration_time:0 stream_index:0
pts:3319 pts_time:3.319 dts:3319 dts_time:3.319 duration:26 duration_time:0.026 stream_index:1
pts:3345 pts_time:3.345 dts:3345 dts_time:3.345 duration:26 duration_time:0.026 stream_index:1
pts:3480 pts_time:3.48 dts:3480 dts_time:3.48 duration:0 duration_time:0 stream_index:0
pts:3371 pts_time:3.371 dts:3371 dts_time:3.371 duration:26 duration_time:0.026 stream_index:1
pts:3520 pts_time:3.52 dts:3520 dts_time:3.52 duration:0 duration_time:0 stream_index:0
pts:3397 pts_time:3.397 dts:3397 dts_time:3.397 duration:26 duration_time:0.026 stream_index:1
pts:3423 pts_time:3.423 dts:3423 dts_time:3.423 duration:26 duration_time:0.026 stream_index:1
pts:3560 pts_time:3.56 dts:3560 dts_time:3.56 duration:0 duration_time:0 stream_index:0
pts:3449 pts_time:3.449 dts:3449 dts_time:3.449 duration:26 duration_time:0.026 stream_index:1
pts:3600 pts_time:3.6 dts:3600 dts_time:3.6 duration:0 duration_time:0 stream_index:0
pts:3475 pts_time:3.475 dts:3475 dts_time:3.475 duration:26 duration_time:0.026 stream_index:1
pts:3501 pts_time:3.501 dts:3501 dts_time:3.501 duration:26 duration_time:0.026 stream_index:1
pts:3640 pts_time:3.64 dts:3640 dts_time:3.64 duration:0 duration_time:0 stream_index:0
pts:3528 pts_time:3.528 dts:3528 dts_time:3.528 duration:26 duration_time:0.026 stream_index:1
pts:3680 pts_time:3.68 dts:3680 dts_time:3.68 duration:0 duration_time:0 stream_index:0
pts:3554 pts_time:3.554 dts:3554 dts_time:3.554 duration:26 duration_time:0.026 stream_index:1
pts:3580 pts_time:3.58 dts:3580 dts_time:3.58 duration:26 duration_time:0.026 stream_index:1
pts:3720 pts_time:3.72 dts:3720 dts_time:3.72 duration:0 duration_time:0 stream_index:0
pts:3606 pts_time:3.606 dts:3606 dts_time:3.606 duration:26 duration_time:0.026 stream_index:1
pts:3760 pts_time:3.76 dts:3760 dts_time:3.76 duration:0 duration_time:0 stream_index:0
pts:3632 pts_time:3.632 dts:3632 dts_time:3.632 duration:26 duration_time:0.026 stream_index:1
pts:3658 pts_time:3.658 dts:3658 dts_time:3.658 duration:26 duration_time:0.026 stream_index:1
pts:3800 pts_time:3.8 dts:3800 dts_time:3.8 duration:0 duration_time:0 stream_index:0
pts:3684 pts_time:3.684 dts:3684 dts_time:3.684 duration:26 duration_time:0.026 stream_index:1
pts:3840 pts_time:3.84 dts:3840 dts_time:3.84 duration:0 duration_time:0 stream_index:0
pts:3710 pts_time:3.71 dts:3710 dts_time:3.71 duration:26 duration_time:0.026 stream_index:1
pts:3737 pts_time:3.737 dts:3737 dts_time:3.737 duration:26 duration_time:0.026 stream_index:1
pts:3880 pts_time:3.88 dts:3880 dts_time:3.88 duration:0 duration_time:0 stream_index:0
pts:3763 pts_time:3.763 dts:3763 dts_time:3.763 duration:26 duration_time:0.026 stream_index:1
pts:3789 pts_time:3.789 dts:3789 dts_time:3.789 duration:26 duration_time:0.026 stream_index:1
pts:3920 pts_time:3.92 dts:3920 dts_time:3.92 duration:0 duration_time:0 stream_index:0
pts:3815 pts_time:3.815 dts:3815 dts_time:3.815 duration:26 duration_time:0.026 stream_index:1
pts:3960 pts_time:3.96 dts:3960 dts_time:3.96 duration:0 duration_time:0 stream_index:0
pts:3841 pts_time:3.841 dts:3841 dts_time:3.841 duration:26 duration_time:0.026 stream_index:1
pts:3867 pts_time:3.867 dts:3867 dts_time:3.867 duration:26 duration_time:0.026 stream_index:1
pts:4000 pts_time:4 dts:4000 dts_time:4 duration:0 duration_time:0 stream_index:0
pts:3893 pts_time:3.893 dts:3893 dts_time:3.893 duration:26 duration_time:0.026 stream_index:1
pts:4040 pts_time:4.04 dts:4040 dts_time:4.04 duration:0 duration_time:0 stream_index:0
pts:3919 pts_time:3.919 dts:3919 dts_time:3.919 duration:26 duration_time:0.026 stream_index:1
pts:3946 pts_time:3.946 dts:3946 dts_time:3.946 duration:26 duration_time:0.026 stream_index:1
pts:4080 pts_time:4.08 dts:4080 dts_time:4.08 duration:0 duration_time:0 stream_index:0
pts:3972 pts_time:3.972 dts:3972 dts_time:3.972 duration:26 duration_time:0.026 stream_index:1
pts:4120 pts_time:4.12 dts:4120 dts_time:4.12 duration:0 duration_time:0 stream_index:0
pts:3998 pts_time:3.998 dts:3998 dts_time:3.998 duration:26 duration_time:0.026 stream_index:1
pts:4024 pts_time:4.024 dts:4024 dts_time:4.024 duration:26 duration_time:0.026 stream_index:1
pts:4160 pts_time:4.16 dts:4160 dts_time:4.16 duration:0 duration_time:0 stream_index:0
pts:4050 pts_time:4.05 dts:4050 dts_time:4.05 duration:26 duration_time:0.026 stream_index:1
pts:4200 pts_time:4.2 dts:4200 dts_time:4.2 duration:0 duration_time:0 stream_index:0
pts:4076 pts_time:4.076 dts:4076 dts_time:4.076 duration:26 duration_time:0.026 stream_index:1
pts:4102 pts_time:4.102 dts:4102 dts_time:4.102 duration:26 duration_time:0.026 stream_index:1
pts:4240 pts_time:4.24 dts:4240 dts_time:4.24 duration:0 duration_time:0 stream_index:0
pts:4128 pts_time:4.128 dts:4128 dts_time:4.128 duration:26 duration_time:0.026 stream_index:1
pts:4280 pts_time:4.28 dts:4280 dts_time:4.28 duration:0 duration_time:0 stream_index:0
pts:4155 pts_time:4.155 dts:4155 dts_time:4.155 duration:26 duration_time:0.026 stream_index:1
pts:4181 pts_time:4.181 dts:4181 dts_time:4.181 duration:26 duration_time:0.026 stream_index:1
pts:4320 pts_time:4.32 dts:4320 dts_time:4.32 duration:0 duration_time:0 stream_index:0
pts:4207 pts_time:4.207 dts:4207 dts_time:4.207 duration:26 duration_time:0.026 stream_index:1
pts:4360 pts_time:4.36 dts:4360 dts_time:4.36 duration:0 duration_time:0 stream_index:0
pts:4233 pts_time:4.233 dts:4233 dts_time:4.233 duration:26 duration_time:0.026 stream_index:1
pts:4259 pts_time:4.259 dts:4259 dts_time:4.259 duration:26 duration_time:0.026 stream_index:1
pts:4400 pts_time:4.4 dts:4400 dts_time:4.4 duration:0 duration_time:0 stream_index:0
pts:4285 pts_time:4.285 dts:4285 dts_time:4.285 duration:26 duration_time:0.026 stream_index:1
pts:4440 pts_time:4.44 dts:4440 dts_time:4.44 duration:0 duration_time:0 stream_index:0
pts:4311 pts_time:4.311 dts:4311 dts_time:4.311 duration:26 duration_time:0.026 stream_index:1
pts:4337 pts_time:4.337 dts:4337 dts_time:4.337 duration:26 duration_time:0.026 stream_index:1
pts:4480 pts_time:4.48 dts:4480 dts_time:4.48 duration:0 duration_time:0 stream_index:0
pts:4364 pts_time:4.364 dts:4364 dts_time:4.364 duration:26 duration_time:0.026 stream_index:1
pts:4390 pts_time:4.39 dts:4390 dts_time:4.39 duration:26 duration_time:0.026 stream_index:1
pts:4520 pts_time:4.52 dts:4520 dts_time:4.52 duration:0 duration_time:0 stream_index:0
pts:4416 pts_time:4.416 dts:4416 dts_time:4.416 duration:26 duration_time:0.026 stream_index:1
pts:4560 pts_time:4.56 dts:4560 dts_time:4.56 duration:0 duration_time:0 stream_index:0
pts:4442 pts_time:4.442 dts:4442 dts_time:4.442 duration:26 duration_time:0.026 stream_index:1
pts:4468 pts_time:4.468 dts:4468 dts_time:4.468 duration:26 duration_time:0.026 stream_index:1
pts:4600 pts_time:4.6 dts:4600 dts_time:4.6 duration:0 duration_time:0 stream_index:0
pts:4494 pts_time:4.494 dts:4494 dts_time:4.494 duration:26 duration_time:0.026 stream_index:1
pts:4640 pts_time:4.64 dts:4640 dts_time:4.64 duration:0 duration_time:0 stream_index:0
pts:4520 pts_time:4.52 dts:4520 dts_time:4.52 duration:26 duration_time:0.026 stream_index:1
pts:4546 pts_time:4.546 dts:4546 dts_time:4.546 duration:26 duration_time:0.026 stream_index:1
pts:4680 pts_time:4.68 dts:4680 dts_time:4.68 duration:0 duration_time:0 stream_index:0
pts:4572 pts_time:4.572 dts:4572 dts_time:4.572 duration:26 duration_time:0.026 stream_index:1
pts:4720 pts_time:4.72 dts:4720 dts_time:4.72 duration:0 duration_time:0 stream_index:0
pts:4599 pts_time:4.599 dts:4599 dts_time:4.599 duration:26 duration_time:0.026 stream_index:1
pts:4625 pts_time:4.625 dts:4625 dts_time:4.625 duration:26 duration_time:0.026 stream_index:1
pts:4760 pts_time:4.76 dts:4760 dts_time:4.76 duration:0 duration_time:0 stream_index:0
pts:4651 pts_time:4.651 dts:4651 dts_time:4.651 duration:26 duration_time:0.026 stream_index:1
pts:4800 pts_time:4.8 dts:4800 dts_time:4.8 duration:0 duration_time:0 stream_index:0
pts:4677 pts_time:4.677 dts:4677 dts_time:4.677 duration:26 duration_time:0.026 stream_index:1
pts:4703 pts_time:4.703 dts:4703 dts_time:4.703 duration:26 duration_time:0.026 stream_index:1
pts:4840 pts_time:4.84 dts:4840 dts_time:4.84 duration:0 duration_time:0 stream_index:0
pts:4729 pts_time:4.729 dts:4729 dts_time:4.729 duration:26 duration_time:0.026 stream_index:1
pts:4880 pts_time:4.88 dts:4880 dts_time:4.88 duration:0 duration_time:0 stream_index:0
pts:4755 pts_time:4.755 dts:4755 dts_time:4.755 duration:26 duration_time:0.026 stream_index:1
pts:4781 pts_time:4.781 dts:4781 dts_time:4.781 duration:26 duration_time:0.026 stream_index:1
pts:4920 pts_time:4.92 dts:4920 dts_time:4.92 duration:0 duration_time:0 stream_index:0
pts:4808 pts_time:4.808 dts:4808 dts_time:4.808 duration:26 duration_time:0.026 stream_index:1
pts:4960 pts_time:4.96 dts:4960 dts_time:4.96 duration:0 duration_time:0 stream_index:0
pts:4834 pts_time:4.834 dts:4834 dts_time:4.834 duration:26 duration_time:0.026 stream_index:1
pts:4860 pts_time:4.86 dts:4860 dts_time:4.86 duration:26 duration_time:0.026 stream_index:1
pts:5000 pts_time:5 dts:5000 dts_time:5 duration:0 duration_time:0 stream_index:0
pts:4886 pts_time:4.886 dts:4886 dts_time:4.886 duration:26 duration_time:0.026 stream_index:1
pts:5040 pts_time:5.04 dts:5040 dts_time:5.04 duration:0 duration_time:0 stream_index:0
pts:4912 pts_time:4.912 dts:4912 dts_time:4.912 duration:26 duration_time:0.026 stream_index:1
pts:4938 pts_time:4.938 dts:4938 dts_time:4.938 duration:26 duration_time:0.026 stream_index:1
pts:5080 pts_time:5.08 dts:5080 dts_time:5.08 duration:0 duration_time:0 stream_index:0
pts:4964 pts_time:4.964 dts:4964 dts_time:4.964 duration:26 duration_time:0.026 stream_index:1
pts:5120 pts_time:5.12 dts:5120 dts_time:5.12 duration:0 duration_time:0 stream_index:0
pts:4990 pts_time:4.99 dts:4990 dts_time:4.99 duration:26 duration_time:0.026 stream_index:1
pts:5017 pts_time:5.017 dts:5017 dts_time:5.017 duration:26 duration_time:0.026 stream_index:1
pts:5160 pts_time:5.16 dts:5160 dts_time:5.16 duration:0 duration_time:0 stream_index:0
pts:5043 pts_time:5.043 dts:5043 dts_time:5.043 duration:26 duration_time:0.026 stream_index:1
pts:5069 pts_time:5.069 dts:5069 dts_time:5.069 duration:26 duration_time:0.026 stream_index:1
pts:5200 pts_time:5.2 dts:5200 dts_time:5.2 duration:0 duration_time:0 stream_index:0
pts:5095 pts_time:5.095 dts:5095 dts_time:5.095 duration:26 duration_time:0.026 stream_index:1
pts:5240 pts_time:5.24 dts:5240 dts_time:5.24 duration:0 duration_time:0 stream_index:0
pts:5121 pts_time:5.121 dts:5121 dts_time:5.121 duration:26 duration_time:0.026 stream_index:1
pts:5147 pts_time:5.147 dts:5147 dts_time:5.147 duration:26 duration_time:0.026 stream_index:1
pts:5280 pts_time:5.28 dts:5280 dts_time:5.28 duration:0 duration_time:0 stream_index:0
pts:5173 pts_time:5.173 dts:5173 dts_time:5.173 duration:26 duration_time:0.026 stream_index:1
pts:5320 pts_time:5.32 dts:5320 dts_time:5.32 duration:0 duration_time:0 stream_index:0
pts:5199 pts_time:5.199 dts:5199 dts_time:5.199 duration:26 duration_time:0.026 stream_index:1
pts:5226 pts_time:5.226 dts:5226 dts_time:5.226 duration:26 duration_time:0.026 stream_index:1
pts:5360 pts_time:5.36 dts:5360 dts_time:5.36 duration:0 duration_time:0 stream_index:0
pts:5252 pts_time:5.252 dts:5252 dts_time:5.252 duration:26 duration_time:0.026 stream_index:1
pts:5400 pts_time:5.4 dts:5400 dts_time:5.4 duration:0 duration_time:0 stream_index:0
pts:5278 pts_time:5.278 dts:5278 dts_time:5.278 duration:26 duration_time:0.026 stream_index:1
pts:5304 pts_time:5.304 dts:5304 dts_time:5.304 duration:26 duration_time:0.026 stream_index:1
pts:5440 pts_time:5.44 dts:5440 dts_time:5.44 duration:0 duration_time:0 stream_index:0
pts:5330 pts_time:5.33 dts:5330 dts_time:5.33 duration:26 duration_time:0.026 stream_index:1
pts:5480 pts_time:5.48 dts:5480 dts_time:5.48 duration:0 duration_time:0 stream_index:0
pts:5356 pts_time:5.356 dts:5356 dts_time:5.356 duration:26 duration_time:0.026 stream_index:1
pts:5382 pts_time:5.382 dts:5382 dts_time:5.382 duration:26 duration_time:0.026 stream_index:1
pts:5520 pts_time:5.52 dts:5520 dts_time:5.52 duration:0 duration_time:0 stream_index:0
pts:5408 pts_time:5.408 dts:5408 dts_time:5.408 duration:26 duration_time:0.026 stream_index:1
pts:5560 pts_time:5.56 dts:5560 dts_time:5.56 duration:0 duration_time:0 stream_index:0
pts:5435 pts_time:5.435 dts:5435 dts_time:5.435 duration:26 duration_time:0.026 stream_index:1
pts:5461 pts_time:5.461 dts:5461 dts_time:5.461 duration:26 duration_time:0.026 stream_index:1
pts:5600 pts_time:5.6 dts:5600 dts_time:5.6 duration:0 duration_time:0 stream_index:0
pts:5487 pts_time:5.487 dts:5487 dts_time:5.487 duration:26 duration_time:0.026 stream_index:1
pts:5640 pts_time:5.64 dts:5640 dts_time:5.64 duration:0 duration_time:0 stream_index:0
pts:5513 pts_time:5.513 dts:5513 dts_time:5.513 duration:26 duration_time:0.026 stream_index:1
pts:5539 pts_time:5.539 dts:5539 dts_time:5.539 duration:26 duration_time:0.026 stream_index:1
pts:5680 pts_time:5.68 dts:5680 dts_time:5.68 duration:0 duration_time:0 stream_index:0
pts:5565 pts_time:5.565 dts:5565 dts_time:5.565 duration:26 duration_time:0.026 stream_index:1
pts:5720 pts_time:5.72 dts:5720 dts_time:5.72 duration:0 duration_time:0 stream_index:0
pts:5591 pts_time:5.591 dts:5591 dts_time:5.591 duration:26 duration_time:0.026 stream_index:1
pts:5617 pts_time:5.617 dts:5617 dts_time:5.617 duration:26 duration_time:0.026 stream_index:1
pts:5760 pts_time:5.76 dts:5760 dts_time:5.76 duration:0 duration_time:0 stream_index:0
pts:5644 pts_time:5.644 dts:5644 dts_time:5.644 duration:26 duration_time:0.026 stream_index:1
pts:5670 pts_time:5.67 dts:5670 dts_time:5.67 duration:26 duration_time:0.026 stream_index:1
pts:5800 pts_time:5.8 dts:5800 dts_time:5.8 duration:0 duration_time:0 stream_index:0
pts:5696 pts_time:5.696 dts:5696 dts_time:5.696 duration:26 duration_time:0.026 stream_index:1
pts:5840 pts_time:5.84 dts:5840 dts_time:5.84 duration:0 duration_time:0 stream_index:0
pts:5722 pts_time:5.722 dts:5722 dts_time:5.722 duration:26 duration_time:0.026 stream_index:1
pts:5748 pts_time:5.748 dts:5748 dts_time:5.748 duration:26 duration_time:0.026 stream_index:1
pts:5880 pts_time:5.88 dts:5880 dts_time:5.88 duration:0 duration_time:0 stream_index:0
pts:5774 pts_time:5.774 dts:5774 dts_time:5.774 duration:26 duration_time:0.026 stream_index:1
pts:5920 pts_time:5.92 dts:5920 dts_time:5.92 duration:0 duration_time:0 stream_index:0
pts:5800 pts_time:5.8 dts:5800 dts_time:5.8 duration:26 duration_time:0.026 stream_index:1
pts:5826 pts_time:5.826 dts:5826 dts_time:5.826 duration:26 duration_time:0.026 stream_index:1
pts:5960 pts_time:5.96 dts:5960 dts_time:5.96 duration:0 duration_time:0 stream_index:0
pts:5852 pts_time:5.852 dts:5852 dts_time:5.852 duration:26 duration_time:0.026 stream_index:1
pts:6000 pts_time:6 dts:6000 dts_time:6 duration:0 duration_time:0 stream_index:0
pts:5879 pts_time:5.879 dts:5879 dts_time:5.879 duration:26 duration_time:0.026 stream_index:1
pts:5905 pts_time:5.905 dts:5905 dts_time:5.905 duration:26 duration_time:0.026 stream_index:1
pts:6040 pts_time:6.04 dts:6040 dts_time:6.04 duration:0 duration_time:0 stream_index:0
pts:5931 pts_time:5.931 dts:5931 dts_time:5.931 duration:26 duration_time:0.026 stream_index:1
pts:6080 pts_time:6.08 dts:6080 dts_time:6.08 duration:0 duration_time:0 stream_index:0
pts:5957 pts_time:5.957 dts:5957 dts_time:5.957 duration:26 duration_time:0.026 stream_index:1
pts:5983 pts_time:5.983 dts:5983 dts_time:5.983 duration:26 duration_time:0.026 stream_index:1
pts:6120 pts_time:6.12 dts:6120 dts_time:6.12 duration:0 duration_time:0 stream_index:0
pts:6009 pts_time:6.009 dts:6009 dts_time:6.009 duration:26 duration_time:0.026 stream_index:1
pts:6160 pts_time:6.16 dts:6160 dts_time:6.16 duration:0 duration_time:0 stream_index:0
pts:6035 pts_time:6.035 dts:6035 dts_time:6.035 duration:26 duration_time:0.026 stream_index:1
pts:6061 pts_time:6.061 dts:6061 dts_time:6.061 duration:26 duration_time:0.026 stream_index:1
pts:6200 pts_time:6.2 dts:6200 dts_time:6.2 duration:0 duration_time:0 stream_index:0
pts:6088 pts_time:6.088 dts:6088 dts_time:6.088 duration:26 duration_time:0.026 stream_index:1
pts:6240 pts_time:6.24 dts:6240 dts_time:6.24 duration:0 duration_time:0 stream_index:0
pts:6114 pts_time:6.114 dts:6114 dts_time:6.114 duration:26 duration_time:0.026 stream_index:1
pts:6140 pts_time:6.14 dts:6140 dts_time:6.14 duration:26 duration_time:0.026 stream_index:1
pts:6280 pts_time:6.28 dts:6280 dts_time:6.28 duration:0 duration_time:0 stream_index:0
pts:6166 pts_time:6.166 dts:6166 dts_time:6.166 duration:26 duration_time:0.026 stream_index:1
pts:6320 pts_time:6.32 dts:6320 dts_time:6.32 duration:0 duration_time:0 stream_index:0
pts:6192 pts_time:6.192 dts:6192 dts_time:6.192 duration:26 duration_time:0.026 stream_index:1
pts:6218 pts_time:6.218 dts:6218 dts_time:6.218 duration:26 duration_time:0.026 stream_index:1
pts:6360 pts_time:6.36 dts:6360 dts_time:6.36 duration:0 duration_time:0 stream_index:0
pts:6244 pts_time:6.244 dts:6244 dts_time:6.244 duration:26 duration_time:0.026 stream_index:1
pts:6400 pts_time:6.4 dts:6400 dts_time:6.4 duration:0 duration_time:0 stream_index:0
pts:6270 pts_time:6.27 dts:6270 dts_time:6.27 duration:26 duration_time:0.026 stream_index:1
pts:6297 pts_time:6.297 dts:6297 dts_time:6.297 duration:26 duration_time:0.026 stream_index:1
pts:6440 pts_time:6.44 dts:6440 dts_time:6.44 duration:0 duration_time:0 stream_index:0
pts:6323 pts_time:6.323 dts:6323 dts_time:6.323 duration:26 duration_time:0.026 stream_index:1
pts:6349 pts_time:6.349 dts:6349 dts_time:6.349 duration:26 duration_time:0.026 stream_index:1
pts:6480 pts_time:6.48 dts:6480 dts_time:6.48 duration:0 duration_time:0 stream_index:0
pts:6375 pts_time:6.375 dts:6375 dts_time:6.375 duration:26 duration_time:0.026 stream_index:1
pts:6520 pts_time:6.52 dts:6520 dts_time:6.52 duration:0 duration_time:0 stream_index:0
pts:6401 pts_time:6.401 dts:6401 dts_time:6.401 duration:26 duration_time:0.026 stream_index:1
pts:6427 pts_time:6.427 dts:6427 dts_time:6.427 duration:26 duration_time:0.026 stream_index:1
pts:6560 pts_time:6.56 dts:6560 dts_time:6.56 duration:0 duration_time:0 stream_index:0
pts:6453 pts_time:6.453 dts:6453 dts_time:6.453 duration:26 duration_time:0.026 stream_index:1
pts:6600 pts_time:6.6 dts:6600 dts_time:6.6 duration:0 duration_time:0 stream_index:0
pts:6479 pts_time:6.479 dts:6479 dts_time:6.479 duration:26 duration_time:0.026 stream_index:1
pts:6506 pts_time:6.506 dts:6506 dts_time:6.506 duration:26 duration_time:0.026 stream_index:1
pts:6640 pts_time:6.64 dts:6640 dts_time:6.64 duration:0 duration_time:0 stream_index:0
pts:6532 pts_time:6.532 dts:6532 dts_time:6.532 duration:26 duration_time:0.026 stream_index:1
pts:6680 pts_time:6.68 dts:6680 dts_time:6.68 duration:0 duration_time:0 stream_index:0
pts:6558 pts_time:6.558 dts:6558 dts_time:6.558 duration:26 duration_time:0.026 stream_index:1
pts:6584 pts_time:6.584 dts:6584 dts_time:6.584 duration:26 duration_time:0.026 stream_index:1
pts:6720 pts_time:6.72 dts:6720 dts_time:6.72 duration:0 duration_time:0 stream_index:0
pts:6610 pts_time:6.61 dts:6610 dts_time:6.61 duration:26 duration_time:0.026 stream_index:1
pts:6760 pts_time:6.76 dts:6760 dts_time:6.76 duration:0 duration_time:0 stream_index:0
pts:6636 pts_time:6.636 dts:6636 dts_time:6.636 duration:26 duration_time:0.026 stream_index:1
pts:6662 pts_time:6.662 dts:6662 dts_time:6.662 duration:26 duration_time:0.026 stream_index:1
pts:6800 pts_time:6.8 dts:6800 dts_time:6.8 duration:0 duration_time:0 stream_index:0
pts:6688 pts_time:6.688 dts:6688 dts_time:6.688 duration:26 duration_time:0.026 stream_index:1
pts:6840 pts_time:6.84 dts:6840 dts_time:6.84 duration:0 duration_time:0 stream_index:0
pts:6715 pts_time:6.715 dts:6715 dts_time:6.715 duration:26 duration_time:0.026 stream_index:1
pts:6741 pts_time:6.741 dts:6741 dts_time:6.741 duration:26 duration_time:0.026 stream_index:1
pts:6880 pts_time:6.88 dts:6880 dts_time:6.88 duration:0 duration_time:0 stream_index:0
pts:6767 pts_time:6.767 dts:6767 dts_time:6.767 duration:26 duration_time:0.026 stream_index:1
pts:6920 pts_time:6.92 dts:6920 dts_time:6.92 duration:0 duration_time:0 stream_index:0
pts:6793 pts_time:6.793 dts:6793 dts_time:6.793 duration:26 duration_time:0.026 stream_index:1
pts:6819 pts_time:6.819 dts:6819 dts_time:6.819 duration:26 duration_time:0.026 stream_index:1
pts:6960 pts_time:6.96 dts:6960 dts_time:6.96 duration:0 duration_time:0 stream_index:0
pts:6845 pts_time:6.845 dts:6845 dts_time:6.845 duration:26 duration_time:0.026 stream_index:1
pts:7000 pts_time:7 dts:7000 dts_time:7 duration:0 duration_time:0 stream_index:0
pts:6871 pts_time:6.871 dts:6871 dts_time:6.871 duration:26 duration_time:0.026 stream_index:1
pts:6897 pts_time:6.897 dts:6897 dts_time:6.897 duration:26 duration_time:0.026 stream_index:1
pts:7040 pts_time:7.04 dts:7040 dts_time:7.04 duration:0 duration_time:0 stream_index:0
pts:6924 pts_time:6.924 dts:6924 dts_time:6.924 duration:26 duration_time:0.026 stream_index:1
pts:6950 pts_time:6.95 dts:6950 dts_time:6.95 duration:26 duration_time:0.026 stream_index:1
pts:7080 pts_time:7.08 dts:7080 dts_time:7.08 duration:0 duration_time:0 stream_index:0
pts:6976 pts_time:6.976 dts:6976 dts_time:6.976 duration:26 duration_time:0.026 stream_index:1
pts:7120 pts_time:7.12 dts:7120 dts_time:7.12 duration:0 duration_time:0 stream_index:0
pts:7002 pts_time:7.002 dts:7002 dts_time:7.002 duration:26 duration_time:0.026 stream_index:1
pts:7028 pts_time:7.028 dts:7028 dts_time:7.028 duration:26 duration_time:0.026 stream_index:1
pts:7160 pts_time:7.16 dts:7160 dts_time:7.16 duration:0 duration_time:0 stream_index:0
pts:7054 pts_time:7.054 dts:7054 dts_time:7.054 duration:26 duration_time:0.026 stream_index:1
pts:7200 pts_time:7.2 dts:7200 dts_time:7.2 duration:0 duration_time:0 stream_index:0
pts:7080 pts_time:7.08 dts:7080 dts_time:7.08 duration:26 duration_time:0.026 stream_index:1
pts:7106 pts_time:7.106 dts:7106 dts_time:7.106 duration:26 duration_time:0.026 stream_index:1
pts:7240 pts_time:7.24 dts:7240 dts_time:7.24 duration:0 duration_time:0 stream_index:0
pts:7132 pts_time:7.132 dts:7132 dts_time:7.132 duration:26 duration_time:0.026 stream_index:1
pts:7280 pts_time:7.28 dts:7280 dts_time:7.28 duration:0 duration_time:0 stream_index:0
pts:7159 pts_time:7.159 dts:7159 dts_time:7.159 duration:26 duration_time:0.026 stream_index:1
pts:7185 pts_time:7.185 dts:7185 dts_time:7.185 duration:26 duration_time:0.026 stream_index:1
pts:7320 pts_time:7.32 dts:7320 dts_time:7.32 duration:0 duration_time:0 stream_index:0
pts:7211 pts_time:7.211 dts:7211 dts_time:7.211 duration:26 duration_time:0.026 stream_index:1
pts:7360 pts_time:7.36 dts:7360 dts_time:7.36 duration:0 duration_time:0 stream_index:0
pts:7237 pts_time:7.237 dts:7237 dts_time:7.237 duration:26 duration_time:0.026 stream_index:1
pts:7263 pts_time:7.263 dts:7263 dts_time:7.263 duration:26 duration_time:0.026 stream_index:1
pts:7400 pts_time:7.4 dts:7400 dts_time:7.4 duration:0 duration_time:0 stream_index:0
pts:7289 pts_time:7.289 dts:7289 dts_time:7.289 duration:26 duration_time:0.026 stream_index:1
pts:7440 pts_time:7.44 dts:7440 dts_time:7.44 duration:0 duration_time:0 stream_index:0
pts:7315 pts_time:7.315 dts:7315 dts_time:7.315 duration:26 duration_time:0.026 stream_index:1
pts:7341 pts_time:7.341 dts:7341 dts_time:7.341 duration:26 duration_time:0.026 stream_index:1
pts:7480 pts_time:7.48 dts:7480 dts_time:7.48 duration:0 duration_time:0 stream_index:0
pts:7368 pts_time:7.368 dts:7368 dts_time:7.368 duration:26 duration_time:0.026 stream_index:1
pts:7520 pts_time:7.52 dts:7520 dts_time:7.52 duration:0 duration_time:0 stream_index:0
pts:7394 pts_time:7.394 dts:7394 dts_time:7.394 duration:26 duration_time:0.026 stream_index:1
pts:7420 pts_time:7.42 dts:7420 dts_time:7.42 duration:26 duration_time:0.026 stream_index:1
pts:7560 pts_time:7.56 dts:7560 dts_time:7.56 duration:0 duration_time:0 stream_index:0
pts:7446 pts_time:7.446 dts:7446 dts_time:7.446 duration:26 duration_time:0.026 stream_index:1
pts:7600 pts_time:7.6 dts:7600 dts_time:7.6 duration:0 duration_time:0 stream_index:0
pts:7472 pts_time:7.472 dts:7472 dts_time:7.472 duration:26 duration_time:0.026 stream_index:1
pts:7498 pts_time:7.498 dts:7498 dts_time:7.498 duration:26 duration_time:0.026 stream_index:1
pts:7640 pts_time:7.64 dts:7640 dts_time:7.64 duration:0 duration_time:0 stream_index:0
pts:7524 pts_time:7.524 dts:7524 dts_time:7.524 duration:26 duration_time:0.026 stream_index:1
pts:7680 pts_time:7.68 dts:7680 dts_time:7.68 duration:0 duration_time:0 stream_index:0
pts:7550 pts_time:7.55 dts:7550 dts_time:7.55 duration:26 duration_time:0.026 stream_index:1
pts:7577 pts_time:7.577 dts:7577 dts_time:7.577 duration:26 duration_time:0.026 stream_index:1
pts:7720 pts_time:7.72 dts:7720 dts_time:7.72 duration:0 duration_time:0 stream_index:0
pts:7603 pts_time:7.603 dts:7603 dts_time:7.603 duration:26 duration_time:0.026 stream_index:1
pts:7629 pts_time:7.629 dts:7629 dts_time:7.629 duration:26 duration_time:0.026 stream_index:1
pts:7760 pts_time:7.76 dts:7760 dts_time:7.76 duration:0 duration_time:0 stream_index:0
pts:7655 pts_time:7.655 dts:7655 dts_time:7.655 duration:26 duration_time:0.026 stream_index:1
pts:7800 pts_time:7.8 dts:7800 dts_time:7.8 duration:0 duration_time:0 stream_index:0
pts:7681 pts_time:7.681 dts:7681 dts_time:7.681 duration:26 duration_time:0.026 stream_index:1
pts:7707 pts_time:7.707 dts:7707 dts_time:7.707 duration:26 duration_time:0.026 stream_index:1
pts:7840 pts_time:7.84 dts:7840 dts_time:7.84 duration:0 duration_time:0 stream_index:0
pts:7733 pts_time:7.733 dts:7733 dts_time:7.733 duration:26 duration_time:0.026 stream_index:1
pts:7880 pts_time:7.88 dts:7880 dts_time:7.88 duration:0 duration_time:0 stream_index:0
pts:7759 pts_time:7.759 dts:7759 dts_time:7.759 duration:26 duration_time:0.026 stream_index:1
pts:7786 pts_time:7.786 dts:7786 dts_time:7.786 duration:26 duration_time:0.026 stream_index:1
pts:7920 pts_time:7.92 dts:7920 dts_time:7.92 duration:0 duration_time:0 stream_index:0
pts:7812 pts_time:7.812 dts:7812 dts_time:7.812 duration:26 duration_time:0.026 stream_index:1
pts:7960 pts_time:7.96 dts:7960 dts_time:7.96 duration:0 duration_time:0 stream_index:0
pts:7838 pts_time:7.838 dts:7838 dts_time:7.838 duration:26 duration_time:0.026 stream_index:1
pts:7864 pts_time:7.864 dts:7864 dts_time:7.864 duration:26 duration_time:0.026 stream_index:1
pts:8000 pts_time:8 dts:8000 dts_time:8 duration:0 duration_time:0 stream_index:0
pts:7890 pts_time:7.89 dts:7890 dts_time:7.89 duration:26 duration_time:0.026 stream_index:1
pts:8040 pts_time:8.04 dts:8040 dts_time:8.04 duration:0 duration_time:0 stream_index:0
pts:7916 pts_time:7.916 dts:7916 dts_time:7.916 duration:26 duration_time:0.026 stream_index:1
pts:7942 pts_time:7.942 dts:7942 dts_time:7.942 duration:26 duration_time:0.026 stream_index:1
pts:8080 pts_time:8.08 dts:8080 dts_time:8.08 duration:0 duration_time:0 stream_index:0
pts:7968 pts_time:7.968 dts:7968 dts_time:7.968 duration:26 duration_time:0.026 stream_index:1
pts:8120 pts_time:8.12 dts:8120 dts_time:8.12 duration:0 duration_time:0 stream_index:0
pts:7995 pts_time:7.995 dts:7995 dts_time:7.995 duration:26 duration_time:0.026 stream_index:1
pts:8021 pts_time:8.021 dts:8021 dts_time:8.021 duration:26 duration_time:0.026 stream_index:1
pts:8160 pts_time:8.16 dts:8160 dts_time:8.16 duration:0 duration_time:0 stream_index:0
pts:8047 pts_time:8.047 dts:8047 dts_time:8.047 duration:26 duration_time:0.026 stream_index:1
pts:8200 pts_time:8.2 dts:8200 dts_time:8.2 duration:0 duration_time:0 stream_index:0
pts:8073 pts_time:8.073 dts:8073 dts_time:8.073 duration:26 duration_time:0.026 stream_index:1
pts:8099 pts_time:8.099 dts:8099 dts_time:8.099 duration:26 duration_time:0.026 stream_index:1
pts:8240 pts_time:8.24 dts:8240 dts_time:8.24 duration:0 duration_time:0 stream_index:0
pts:8125 pts_time:8.125 dts:8125 dts_time:8.125 duration:26 duration_time:0.026 stream_index:1
pts:8280 pts_time:8.28 dts:8280 dts_time:8.28 duration:0 duration_time:0 stream_index:0
pts:8151 pts_time:8.151 dts:8151 dts_time:8.151 duration:26 duration_time:0.026 stream_index:1
pts:8177 pts_time:8.177 dts:8177 dts_time:8.177 duration:26 duration_time:0.026 stream_index:1
pts:8320 pts_time:8.32 dts:8320 dts_time:8.32 duration:0 duration_time:0 stream_index:0
pts:8204 pts_time:8.204 dts:8204 dts_time:8.204 duration:26 duration_time:0.026 stream_index:1
pts:8230 pts_time:8.23 dts:8230 dts_time:8.23 duration:26 duration_time:0.026 stream_index:1
pts:8360 pts_time:8.36 dts:8360 dts_time:8.36 duration:0 duration_time:0 stream_index:0
pts:8256 pts_time:8.256 dts:8256 dts_time:8.256 duration:26 duration_time:0.026 stream_index:1
pts:8400 pts_time:8.4 dts:8400 dts_time:8.4 duration:0 duration_time:0 stream_index:0
pts:8282 pts_time:8.282 dts:8282 dts_time:8.282 duration:26 duration_time:0.026 stream_index:1
pts:8308 pts_time:8.308 dts:8308 dts_time:8.308 duration:26 duration_time:0.026 stream_index:1
pts:8440 pts_time:8.44 dts:8440 dts_time:8.44 duration:0 duration_time:0 stream_index:0
pts:8334 pts_time:8.334 dts:8334 dts_time:8.334 duration:26 duration_time:0.026 stream_index:1
pts:8480 pts_time:8.48 dts:8480 dts_time:8.48 duration:0 duration_time:0 stream_index:0
pts:8360 pts_time:8.36 dts:8360 dts_time:8.36 duration:26 duration_time:0.026 stream_index:1
pts:8386 pts_time:8.386 dts:8386 dts_time:8.386 duration:26 duration_time:0.026 stream_index:1
pts:8520 pts_time:8.52 dts:8520 dts_time:8.52 duration:0 duration_time:0 stream_index:0
pts:8412 pts_time:8.412 dts:8412 dts_time:8.412 duration:26 duration_time:0.026 stream_index:1
pts:8560 pts_time:8.56 dts:8560 dts_time:8.56 duration:0 duration_time:0 stream_index:0
pts:8439 pts_time:8.439 dts:8439 dts_time:8.439 duration:26 duration_time:0.026 stream_index:1
pts:8465 pts_time:8.465 dts:8465 dts_time:8.465 duration:26 duration_time:0.026 stream_index:1
pts:8600 pts_time:8.6 dts:8600 dts_time:8.6 duration:0 duration_time:0 stream_index:0
pts:8491 pts_time:8.491 dts:8491 dts_time:8.491 duration:26 duration_time:0.026 stream_index:1
pts:8640 pts_time:8.64 dts:8640 dts_time:8.64 duration:0 duration_time:0 stream_index:0
pts:8517 pts_time:8.517 dts:8517 dts_time:8.517 duration:26 duration_time:0.026 stream_index:1
pts:8543 pts_time:8.543 dts:8543 dts_time:8.543 duration:26 duration_time:0.026 stream_index:1
pts:8680 pts_time:8.68 dts:8680 dts_time:8.68 duration:0 duration_time:0 stream_index:0
pts:8569 pts_time:8.569 dts:8569 dts_time:8.569 duration:26 duration_time:0.026 stream_index:1
pts:8720 pts_time:8.72 dts:8720 dts_time:8.72 duration:0 duration_time:0 stream_index:0
pts:8595 pts_time:8.595 dts:8595 dts_time:8.595 duration:26 duration_time:0.026 stream_index:1
pts:8621 pts_time:8.621 dts:8621 dts_time:8.621 duration:26 duration_time:0.026 stream_index:1
pts:8760 pts_time:8.76 dts:8760 dts_time:8.76 duration:0 duration_time:0 stream_index:0
pts:8648 pts_time:8.648 dts:8648 dts_time:8.648 duration:26 duration_time:0.026 stream_index:1
pts:8800 pts_time:8.8 dts:8800 dts_time:8.8 duration:0 duration_time:0 stream_index:0
pts:8674 pts_time:8.674 dts:8674 dts_time:8.674 duration:26 duration_time:0.026 stream_index:1
pts:8700 pts_time:8.7 dts:8700 dts_time:8.7 duration:26 duration_time:0.026 stream_index:1
pts:8840 pts_time:8.84 dts:8840 dts_time:8.84 duration:0 duration_time:0 stream_index:0
pts:8726 pts_time:8.726 dts:8726 dts_time:8.726 duration:26 duration_time:0.026 stream_index:1
pts:8880 pts_time:8.88 dts:8880 dts_time:8.88 duration:0 duration_time:0 stream_index:0
pts:8752 pts_time:8.752 dts:8752 dts_time:8.752 duration:26 duration_time:0.026 stream_index:1
pts:8778 pts_time:8.778 dts:8778 dts_time:8.778 duration:26 duration_time:0.026 stream_index:1
pts:8920 pts_time:8.92 dts:8920 dts_time:8.92 duration:0 duration_time:0 stream_index:0
pts:8804 pts_time:8.804 dts:8804 dts_time:8.804 duration:26 duration_time:0.026 stream_index:1
pts:8960 pts_time:8.96 dts:8960 dts_time:8.96 duration:0 duration_time:0 stream_index:0
pts:8830 pts_time:8.83 dts:8830 dts_time:8.83 duration:26 duration_time:0.026 stream_index:1
pts:8857 pts_time:8.857 dts:8857 dts_time:8.857 duration:26 duration_time:0.026 stream_index:1
pts:9000 pts_time:9 dts:9000 dts_time:9 duration:0 duration_time:0 stream_index:0
pts:8883 pts_time:8.883 dts:8883 dts_time:8.883 duration:26 duration_time:0.026 stream_index:1
pts:8909 pts_time:8.909 dts:8909 dts_time:8.909 duration:26 duration_time:0.026 stream_index:1
pts:9040 pts_time:9.04 dts:9040 dts_time:9.04 duration:0 duration_time:0 stream_index:0
pts:8935 pts_time:8.935 dts:8935 dts_time:8.935 duration:26 duration_time:0.026 stream_index:1
pts:9080 pts_time:9.08 dts:9080 dts_time:9.08 duration:0 duration_time:0 stream_index:0
pts:8961 pts_time:8.961 dts:8961 dts_time:8.961 duration:26 duration_time:0.026 stream_index:1
pts:8987 pts_time:8.987 dts:8987 dts_time:8.987 duration:26 duration_time:0.026 stream_index:1
pts:9120 pts_time:9.12 dts:9120 dts_time:9.12 duration:0 duration_time:0 stream_index:0
pts:9013 pts_time:9.013 dts:9013 dts_time:9.013 duration:26 duration_time:0.026 stream_index:1
pts:9160 pts_time:9.16 dts:9160 dts_time:9.16 duration:0 duration_time:0 stream_index:0
pts:9039 pts_time:9.039 dts:9039 dts_time:9.039 duration:26 duration_time:0.026 stream_index:1
pts:9066 pts_time:9.066 dts:9066 dts_time:9.066 duration:26 duration_time:0.026 stream_index:1
pts:9200 pts_time:9.2 dts:9200 dts_time:9.2 duration:0 duration_time:0 stream_index:0
pts:9092 pts_time:9.092 dts:9092 dts_time:9.092 duration:26 duration_time:0.026 stream_index:1
pts:9240 pts_time:9.24 dts:9240 dts_time:9.24 duration:0 duration_time:0 stream_index:0
pts:9118 pts_time:9.118 dts:9118 dts_time:9.118 duration:26 duration_time:0.026 stream_index:1
pts:9144 pts_time:9.144 dts:9144 dts_time:9.144 duration:26 duration_time:0.026 stream_index:1
pts:9280 pts_time:9.28 dts:9280 dts_time:9.28 duration:0 duration_time:0 stream_index:0
pts:9170 pts_time:9.17 dts:9170 dts_time:9.17 duration:26 duration_time:0.026 stream_index:1
pts:9320 pts_time:9.32 dts:9320 dts_time:9.32 duration:0 duration_time:0 stream_index:0
pts:9196 pts_time:9.196 dts:9196 dts_time:9.196 duration:26 duration_time:0.026 stream_index:1
pts:9222 pts_time:9.222 dts:9222 dts_time:9.222 duration:26 duration_time:0.026 stream_index:1
pts:9360 pts_time:9.36 dts:9360 dts_time:9.36 duration:0 duration_time:0 stream_index:0
pts:9248 pts_time:9.248 dts:9248 dts_time:9.248 duration:26 duration_time:0.026 stream_index:1
pts:9400 pts_time:9.4 dts:9400 dts_time:9.4 duration:0 duration_time:0 stream_index:0
pts:9275 pts_time:9.275 dts:9275 dts_time:9.275 duration:26 duration_time:0.026 stream_index:1
pts:9301 pts_time:9.301 dts:9301 dts_time:9.301 duration:26 duration_time:0.026 stream_index:1
pts:9440 pts_time:9.44 dts:9440 dts_time:9.44 duration:0 duration_time:0 stream_index:0
pts:9327 pts_time:9.327 dts:9327 dts_time:9.327 duration:26 duration_time:0.026 stream_index:1
pts:9480 pts_time:9.48 dts:9480 dts_time:9.48 duration:0 duration_time:0 stream_index:0
pts:9353 pts_time:9.353 dts:9353 dts_time:9.353 duration:26 duration_time:0.026 stream_index:1
pts:9379 pts_time:9.379 dts:9379 dts_time:9.379 duration:26 duration_time:0.026 stream_index:1
pts:9520 pts_time:9.52 dts:9520 dts_time:9.52 duration:0 duration_time:0 stream_index:0
pts:9405 pts_time:9.405 dts:9405 dts_time:9.405 duration:26 duration_time:0.026 stream_index:1
pts:9560 pts_time:9.56 dts:9560 dts_time:9.56 duration:0 duration_time:0 stream_index:0
pts:9431 pts_time:9.431 dts:9431 dts_time:9.431 duration:26 duration_time:0.026 stream_index:1
pts:9457 pts_time:9.457 dts:9457 dts_time:9.457 duration:26 duration_time:0.026 stream_index:1
pts:9600 pts_time:9.6 dts:9600 dts_time:9.6 duration:0 duration_time:0 stream_index:0
pts:9484 pts_time:9.484 dts:9484 dts_time:9.484 duration:26 duration_time:0.026 stream_index:1
pts:9510 pts_time:9.51 dts:9510 dts_time:9.51 duration:26 duration_time:0.026 stream_index:1
pts:9640 pts_time:9.64 dts:9640 dts_time:9.64 duration:0 duration_time:0 stream_index:0
pts:9536 pts_time:9.536 dts:9536 dts_time:9.536 duration:26 duration_time:0.026 stream_index:1
pts:9680 pts_time:9.68 dts:9680 dts_time:9.68 duration:0 duration_time:0 stream_index:0
pts:9562 pts_time:9.562 dts:9562 dts_time:9.562 duration:26 duration_time:0.026 stream_index:1
pts:9588 pts_time:9.588 dts:9588 dts_time:9.588 duration:26 duration_time:0.026 stream_index:1
pts:9720 pts_time:9.72 dts:9720 dts_time:9.72 duration:0 duration_time:0 stream_index:0
pts:9614 pts_time:9.614 dts:9614 dts_time:9.614 duration:26 duration_time:0.026 stream_index:1
pts:9760 pts_time:9.76 dts:9760 dts_time:9.76 duration:0 duration_time:0 stream_index:0
pts:9640 pts_time:9.64 dts:9640 dts_time:9.64 duration:26 duration_time:0.026 stream_index:1
pts:9666 pts_time:9.666 dts:9666 dts_time:9.666 duration:26 duration_time:0.026 stream_index:1
pts:9800 pts_time:9.8 dts:9800 dts_time:9.8 duration:0 duration_time:0 stream_index:0
pts:9692 pts_time:9.692 dts:9692 dts_time:9.692 duration:26 duration_time:0.026 stream_index:1
pts:9840 pts_time:9.84 dts:9840 dts_time:9.84 duration:0 duration_time:0 stream_index:0
pts:9719 pts_time:9.719 dts:9719 dts_time:9.719 duration:26 duration_time:0.026 stream_index:1
pts:9745 pts_time:9.745 dts:9745 dts_time:9.745 duration:26 duration_time:0.026 stream_index:1
pts:9880 pts_time:9.88 dts:9880 dts_time:9.88 duration:0 duration_time:0 stream_index:0
pts:9771 pts_time:9.771 dts:9771 dts_time:9.771 duration:26 duration_time:0.026 stream_index:1
pts:9920 pts_time:9.92 dts:9920 dts_time:9.92 duration:0 duration_time:0 stream_index:0
pts:9797 pts_time:9.797 dts:9797 dts_time:9.797 duration:26 duration_time:0.026 stream_index:1
pts:9823 pts_time:9.823 dts:9823 dts_time:9.823 duration:26 duration_time:0.026 stream_index:1
pts:9960 pts_time:9.96 dts:9960 dts_time:9.96 duration:0 duration_time:0 stream_index:0
pts:9849 pts_time:9.849 dts:9849 dts_time:9.849 duration:26 duration_time:0.026 stream_index:1
pts:10000 pts_time:10 dts:10000 dts_time:10 duration:0 duration_time:0 stream_index:0
pts:9875 pts_time:9.875 dts:9875 dts_time:9.875 duration:26 duration_time:0.026 stream_index:1
pts:9901 pts_time:9.901 dts:9901 dts_time:9.901 duration:26 duration_time:0.026 stream_index:1
pts:9928 pts_time:9.928 dts:9928 dts_time:9.928 duration:26 duration_time:0.026 stream_index:1
pts:9954 pts_time:9.954 dts:9954 dts_time:9.954 duration:26 duration_time:0.026 stream_index:1
pts:9980 pts_time:9.98 dts:9980 dts_time:9.98 duration:25 duration_time:0.025 stream_index:1
